<mxfile host="app.diagrams.net" agent="Mozilla/5.0 (Windows NT 10.0; Win64; x64) AppleWebKit/537.36 (KHTML, like Gecko) Chrome/141.0.0.0 Safari/537.36" version="28.2.7">
  <diagram name="Page-1" id="aN6_IMvi036U4C1Fg0Iq">
    <mxGraphModel dx="2066" dy="1137" grid="1" gridSize="10" guides="1" tooltips="1" connect="1" arrows="1" fold="1" page="1" pageScale="1" pageWidth="850" pageHeight="1100" math="0" shadow="0">
      <root>
        <mxCell id="0" />
        <mxCell id="1" parent="0" />
        <mxCell id="MnOlPlZb2s9TH5imRxn--39" value="END" style="ellipse;whiteSpace=wrap;html=1;" parent="1" vertex="1">
          <mxGeometry x="320" y="750" width="120" height="80" as="geometry" />
        </mxCell>
        <mxCell id="MnOlPlZb2s9TH5imRxn--46" value="" style="edgeStyle=orthogonalEdgeStyle;rounded=0;orthogonalLoop=1;jettySize=auto;html=1;" parent="1" source="MnOlPlZb2s9TH5imRxn--40" target="MnOlPlZb2s9TH5imRxn--45" edge="1">
          <mxGeometry relative="1" as="geometry" />
        </mxCell>
        <mxCell id="MnOlPlZb2s9TH5imRxn--40" value="START" style="ellipse;whiteSpace=wrap;html=1;" parent="1" vertex="1">
          <mxGeometry x="90" y="60" width="120" height="80" as="geometry" />
        </mxCell>
        <mxCell id="MnOlPlZb2s9TH5imRxn--41" value="&lt;div&gt;Console.WriteLine(&quot;tuli 3&quot;);&lt;/div&gt;&lt;div&gt;break;&lt;/div&gt;" style="rounded=0;whiteSpace=wrap;html=1;" parent="1" vertex="1">
          <mxGeometry x="280" y="520" width="120" height="60" as="geometry" />
        </mxCell>
        <mxCell id="MnOlPlZb2s9TH5imRxn--42" value="&lt;div&gt;Console.WriteLine(&quot;tuli 2&quot;);&lt;/div&gt;&lt;div&gt;break;&lt;/div&gt;" style="rounded=0;whiteSpace=wrap;html=1;" parent="1" vertex="1">
          <mxGeometry x="140" y="520" width="120" height="60" as="geometry" />
        </mxCell>
        <mxCell id="MnOlPlZb2s9TH5imRxn--43" value="&lt;div&gt;Console.WriteLine(&quot;tuli 1&quot;);&lt;/div&gt;&lt;div&gt;break;&lt;/div&gt;" style="rounded=0;whiteSpace=wrap;html=1;" parent="1" vertex="1">
          <mxGeometry y="520" width="120" height="60" as="geometry" />
        </mxCell>
        <mxCell id="3x9N-WNJ4bzo_OIqgOSU-13" value="" style="edgeStyle=orthogonalEdgeStyle;rounded=0;orthogonalLoop=1;jettySize=auto;html=1;" edge="1" parent="1" source="MnOlPlZb2s9TH5imRxn--44" target="3x9N-WNJ4bzo_OIqgOSU-3">
          <mxGeometry relative="1" as="geometry" />
        </mxCell>
        <mxCell id="MnOlPlZb2s9TH5imRxn--44" value="switch (cube)" style="rounded=0;whiteSpace=wrap;html=1;" parent="1" vertex="1">
          <mxGeometry y="320" width="120" height="60" as="geometry" />
        </mxCell>
        <mxCell id="3x9N-WNJ4bzo_OIqgOSU-1" value="" style="edgeStyle=orthogonalEdgeStyle;rounded=0;orthogonalLoop=1;jettySize=auto;html=1;" edge="1" parent="1" source="MnOlPlZb2s9TH5imRxn--45" target="MnOlPlZb2s9TH5imRxn--44">
          <mxGeometry relative="1" as="geometry" />
        </mxCell>
        <mxCell id="MnOlPlZb2s9TH5imRxn--45" value="Console.WriteLine(&quot;Genereerib numbreid Ã¼hest kuni kuueni&quot;);&amp;nbsp;int cube = new Random().Next(1, 7);" style="rounded=0;whiteSpace=wrap;html=1;" parent="1" vertex="1">
          <mxGeometry x="12.5" y="240" width="275" height="40" as="geometry" />
        </mxCell>
        <mxCell id="3x9N-WNJ4bzo_OIqgOSU-9" value="" style="edgeStyle=orthogonalEdgeStyle;rounded=0;orthogonalLoop=1;jettySize=auto;html=1;" edge="1" parent="1" source="3x9N-WNJ4bzo_OIqgOSU-2" target="3x9N-WNJ4bzo_OIqgOSU-7">
          <mxGeometry relative="1" as="geometry" />
        </mxCell>
        <mxCell id="3x9N-WNJ4bzo_OIqgOSU-15" value="" style="edgeStyle=orthogonalEdgeStyle;rounded=0;orthogonalLoop=1;jettySize=auto;html=1;" edge="1" parent="1" source="3x9N-WNJ4bzo_OIqgOSU-2" target="MnOlPlZb2s9TH5imRxn--42">
          <mxGeometry relative="1" as="geometry" />
        </mxCell>
        <mxCell id="3x9N-WNJ4bzo_OIqgOSU-2" value="&amp;nbsp;case 2:" style="rhombus;whiteSpace=wrap;html=1;" vertex="1" parent="1">
          <mxGeometry x="160" y="410" width="80" height="80" as="geometry" />
        </mxCell>
        <mxCell id="3x9N-WNJ4bzo_OIqgOSU-8" value="" style="edgeStyle=orthogonalEdgeStyle;rounded=0;orthogonalLoop=1;jettySize=auto;html=1;" edge="1" parent="1" source="3x9N-WNJ4bzo_OIqgOSU-3" target="3x9N-WNJ4bzo_OIqgOSU-2">
          <mxGeometry relative="1" as="geometry" />
        </mxCell>
        <mxCell id="3x9N-WNJ4bzo_OIqgOSU-14" value="" style="edgeStyle=orthogonalEdgeStyle;rounded=0;orthogonalLoop=1;jettySize=auto;html=1;" edge="1" parent="1" source="3x9N-WNJ4bzo_OIqgOSU-3" target="MnOlPlZb2s9TH5imRxn--43">
          <mxGeometry relative="1" as="geometry" />
        </mxCell>
        <mxCell id="3x9N-WNJ4bzo_OIqgOSU-3" value="case 1:" style="rhombus;whiteSpace=wrap;html=1;" vertex="1" parent="1">
          <mxGeometry x="20" y="410" width="80" height="80" as="geometry" />
        </mxCell>
        <mxCell id="3x9N-WNJ4bzo_OIqgOSU-11" value="" style="edgeStyle=orthogonalEdgeStyle;rounded=0;orthogonalLoop=1;jettySize=auto;html=1;" edge="1" parent="1" source="3x9N-WNJ4bzo_OIqgOSU-4" target="3x9N-WNJ4bzo_OIqgOSU-5">
          <mxGeometry relative="1" as="geometry" />
        </mxCell>
        <mxCell id="3x9N-WNJ4bzo_OIqgOSU-20" value="" style="edgeStyle=orthogonalEdgeStyle;rounded=0;orthogonalLoop=1;jettySize=auto;html=1;" edge="1" parent="1" source="3x9N-WNJ4bzo_OIqgOSU-4" target="3x9N-WNJ4bzo_OIqgOSU-17">
          <mxGeometry relative="1" as="geometry" />
        </mxCell>
        <mxCell id="3x9N-WNJ4bzo_OIqgOSU-4" value="case 4:" style="rhombus;whiteSpace=wrap;html=1;" vertex="1" parent="1">
          <mxGeometry x="430" y="410" width="80" height="80" as="geometry" />
        </mxCell>
        <mxCell id="3x9N-WNJ4bzo_OIqgOSU-12" value="" style="edgeStyle=orthogonalEdgeStyle;rounded=0;orthogonalLoop=1;jettySize=auto;html=1;" edge="1" parent="1" source="3x9N-WNJ4bzo_OIqgOSU-5" target="3x9N-WNJ4bzo_OIqgOSU-6">
          <mxGeometry relative="1" as="geometry" />
        </mxCell>
        <mxCell id="3x9N-WNJ4bzo_OIqgOSU-21" value="" style="edgeStyle=orthogonalEdgeStyle;rounded=0;orthogonalLoop=1;jettySize=auto;html=1;" edge="1" parent="1" source="3x9N-WNJ4bzo_OIqgOSU-5" target="3x9N-WNJ4bzo_OIqgOSU-19">
          <mxGeometry relative="1" as="geometry" />
        </mxCell>
        <mxCell id="3x9N-WNJ4bzo_OIqgOSU-5" value="case 5:" style="rhombus;whiteSpace=wrap;html=1;" vertex="1" parent="1">
          <mxGeometry x="580" y="410" width="80" height="80" as="geometry" />
        </mxCell>
        <mxCell id="3x9N-WNJ4bzo_OIqgOSU-22" value="" style="edgeStyle=orthogonalEdgeStyle;rounded=0;orthogonalLoop=1;jettySize=auto;html=1;" edge="1" parent="1" source="3x9N-WNJ4bzo_OIqgOSU-6" target="3x9N-WNJ4bzo_OIqgOSU-18">
          <mxGeometry relative="1" as="geometry" />
        </mxCell>
        <mxCell id="3x9N-WNJ4bzo_OIqgOSU-6" value="case 6:" style="rhombus;whiteSpace=wrap;html=1;" vertex="1" parent="1">
          <mxGeometry x="740" y="410" width="80" height="80" as="geometry" />
        </mxCell>
        <mxCell id="3x9N-WNJ4bzo_OIqgOSU-10" value="" style="edgeStyle=orthogonalEdgeStyle;rounded=0;orthogonalLoop=1;jettySize=auto;html=1;" edge="1" parent="1" source="3x9N-WNJ4bzo_OIqgOSU-7" target="3x9N-WNJ4bzo_OIqgOSU-4">
          <mxGeometry relative="1" as="geometry" />
        </mxCell>
        <mxCell id="3x9N-WNJ4bzo_OIqgOSU-16" value="" style="edgeStyle=orthogonalEdgeStyle;rounded=0;orthogonalLoop=1;jettySize=auto;html=1;" edge="1" parent="1" source="3x9N-WNJ4bzo_OIqgOSU-7" target="MnOlPlZb2s9TH5imRxn--41">
          <mxGeometry relative="1" as="geometry" />
        </mxCell>
        <mxCell id="3x9N-WNJ4bzo_OIqgOSU-7" value="case 3:" style="rhombus;whiteSpace=wrap;html=1;" vertex="1" parent="1">
          <mxGeometry x="300" y="410" width="80" height="80" as="geometry" />
        </mxCell>
        <mxCell id="3x9N-WNJ4bzo_OIqgOSU-17" value="&lt;div&gt;Console.WriteLine(&quot;tuli 4&quot;);&lt;/div&gt;&lt;div&gt;break;&lt;/div&gt;" style="rounded=0;whiteSpace=wrap;html=1;" vertex="1" parent="1">
          <mxGeometry x="410" y="520" width="120" height="60" as="geometry" />
        </mxCell>
        <mxCell id="3x9N-WNJ4bzo_OIqgOSU-18" value="&lt;div&gt;Console.WriteLine(&quot;tuli 6&quot;);&lt;/div&gt;&lt;div&gt;break;&lt;/div&gt;" style="rounded=0;whiteSpace=wrap;html=1;" vertex="1" parent="1">
          <mxGeometry x="720" y="520" width="120" height="60" as="geometry" />
        </mxCell>
        <mxCell id="3x9N-WNJ4bzo_OIqgOSU-19" value="&lt;div&gt;Console.WriteLine(&quot;tuli 5&quot;);&lt;/div&gt;&lt;div&gt;break;&lt;/div&gt;" style="rounded=0;whiteSpace=wrap;html=1;" vertex="1" parent="1">
          <mxGeometry x="560" y="520" width="120" height="60" as="geometry" />
        </mxCell>
        <mxCell id="3x9N-WNJ4bzo_OIqgOSU-30" value="" style="endArrow=classic;html=1;rounded=0;exitX=0.5;exitY=1;exitDx=0;exitDy=0;entryX=0.5;entryY=0;entryDx=0;entryDy=0;" edge="1" parent="1" source="3x9N-WNJ4bzo_OIqgOSU-18" target="MnOlPlZb2s9TH5imRxn--39">
          <mxGeometry width="50" height="50" relative="1" as="geometry">
            <mxPoint x="490" y="970" as="sourcePoint" />
            <mxPoint x="540" y="920" as="targetPoint" />
            <Array as="points">
              <mxPoint x="500" y="700" />
            </Array>
          </mxGeometry>
        </mxCell>
        <mxCell id="3x9N-WNJ4bzo_OIqgOSU-31" value="" style="endArrow=classic;html=1;rounded=0;" edge="1" parent="1" source="3x9N-WNJ4bzo_OIqgOSU-19" target="MnOlPlZb2s9TH5imRxn--39">
          <mxGeometry width="50" height="50" relative="1" as="geometry">
            <mxPoint x="490" y="970" as="sourcePoint" />
            <mxPoint x="540" y="920" as="targetPoint" />
          </mxGeometry>
        </mxCell>
        <mxCell id="3x9N-WNJ4bzo_OIqgOSU-32" value="" style="endArrow=classic;html=1;rounded=0;" edge="1" parent="1" source="3x9N-WNJ4bzo_OIqgOSU-17" target="MnOlPlZb2s9TH5imRxn--39">
          <mxGeometry width="50" height="50" relative="1" as="geometry">
            <mxPoint x="490" y="970" as="sourcePoint" />
            <mxPoint x="540" y="920" as="targetPoint" />
          </mxGeometry>
        </mxCell>
        <mxCell id="3x9N-WNJ4bzo_OIqgOSU-33" value="" style="endArrow=classic;html=1;rounded=0;" edge="1" parent="1" source="MnOlPlZb2s9TH5imRxn--41">
          <mxGeometry width="50" height="50" relative="1" as="geometry">
            <mxPoint x="490" y="970" as="sourcePoint" />
            <mxPoint x="380" y="760" as="targetPoint" />
          </mxGeometry>
        </mxCell>
        <mxCell id="3x9N-WNJ4bzo_OIqgOSU-34" value="" style="endArrow=classic;html=1;rounded=0;exitX=0.5;exitY=1;exitDx=0;exitDy=0;" edge="1" parent="1" source="MnOlPlZb2s9TH5imRxn--42" target="MnOlPlZb2s9TH5imRxn--39">
          <mxGeometry width="50" height="50" relative="1" as="geometry">
            <mxPoint x="490" y="970" as="sourcePoint" />
            <mxPoint x="540" y="920" as="targetPoint" />
          </mxGeometry>
        </mxCell>
        <mxCell id="3x9N-WNJ4bzo_OIqgOSU-35" value="" style="endArrow=classic;html=1;rounded=0;exitX=0.442;exitY=0.967;exitDx=0;exitDy=0;exitPerimeter=0;" edge="1" parent="1" source="MnOlPlZb2s9TH5imRxn--43" target="MnOlPlZb2s9TH5imRxn--39">
          <mxGeometry width="50" height="50" relative="1" as="geometry">
            <mxPoint x="490" y="970" as="sourcePoint" />
            <mxPoint x="540" y="920" as="targetPoint" />
          </mxGeometry>
        </mxCell>
        <mxCell id="3x9N-WNJ4bzo_OIqgOSU-36" value="FALSE" style="text;html=1;whiteSpace=wrap;strokeColor=none;fillColor=none;align=center;verticalAlign=middle;rounded=0;" vertex="1" parent="1">
          <mxGeometry x="70" y="410" width="60" height="30" as="geometry" />
        </mxCell>
        <mxCell id="3x9N-WNJ4bzo_OIqgOSU-37" value="FALSE" style="text;html=1;whiteSpace=wrap;strokeColor=none;fillColor=none;align=center;verticalAlign=middle;rounded=0;" vertex="1" parent="1">
          <mxGeometry x="220" y="410" width="60" height="30" as="geometry" />
        </mxCell>
        <mxCell id="3x9N-WNJ4bzo_OIqgOSU-38" value="FALSE" style="text;html=1;whiteSpace=wrap;strokeColor=none;fillColor=none;align=center;verticalAlign=middle;rounded=0;" vertex="1" parent="1">
          <mxGeometry x="360" y="410" width="60" height="30" as="geometry" />
        </mxCell>
        <mxCell id="3x9N-WNJ4bzo_OIqgOSU-39" value="&lt;span style=&quot;color: rgb(0, 0, 0); font-family: Helvetica; font-size: 12px; font-style: normal; font-variant-ligatures: normal; font-variant-caps: normal; font-weight: 400; letter-spacing: normal; orphans: 2; text-align: center; text-indent: 0px; text-transform: none; widows: 2; word-spacing: 0px; -webkit-text-stroke-width: 0px; white-space: normal; background-color: rgb(236, 236, 236); text-decoration-thickness: initial; text-decoration-style: initial; text-decoration-color: initial; display: inline !important; float: none;&quot;&gt;FALSE&lt;/span&gt;" style="text;whiteSpace=wrap;html=1;" vertex="1" parent="1">
          <mxGeometry x="490" y="410" width="70" height="40" as="geometry" />
        </mxCell>
        <mxCell id="3x9N-WNJ4bzo_OIqgOSU-40" value="&lt;span style=&quot;color: rgb(0, 0, 0); font-family: Helvetica; font-size: 12px; font-style: normal; font-variant-ligatures: normal; font-variant-caps: normal; font-weight: 400; letter-spacing: normal; orphans: 2; text-align: center; text-indent: 0px; text-transform: none; widows: 2; word-spacing: 0px; -webkit-text-stroke-width: 0px; white-space: normal; background-color: rgb(236, 236, 236); text-decoration-thickness: initial; text-decoration-style: initial; text-decoration-color: initial; display: inline !important; float: none;&quot;&gt;FALSE&lt;/span&gt;" style="text;whiteSpace=wrap;html=1;" vertex="1" parent="1">
          <mxGeometry x="650" y="410" width="70" height="40" as="geometry" />
        </mxCell>
        <mxCell id="3x9N-WNJ4bzo_OIqgOSU-41" value="TRUE" style="text;html=1;whiteSpace=wrap;strokeColor=none;fillColor=none;align=center;verticalAlign=middle;rounded=0;" vertex="1" parent="1">
          <mxGeometry x="70" y="490" width="60" height="30" as="geometry" />
        </mxCell>
        <mxCell id="3x9N-WNJ4bzo_OIqgOSU-42" value="TRUE" style="text;html=1;whiteSpace=wrap;strokeColor=none;fillColor=none;align=center;verticalAlign=middle;rounded=0;" vertex="1" parent="1">
          <mxGeometry x="220" y="490" width="60" height="30" as="geometry" />
        </mxCell>
        <mxCell id="3x9N-WNJ4bzo_OIqgOSU-43" value="TRUE" style="text;html=1;whiteSpace=wrap;strokeColor=none;fillColor=none;align=center;verticalAlign=middle;rounded=0;" vertex="1" parent="1">
          <mxGeometry x="350" y="490" width="60" height="30" as="geometry" />
        </mxCell>
        <mxCell id="3x9N-WNJ4bzo_OIqgOSU-44" value="&lt;span style=&quot;color: rgb(0, 0, 0); font-family: Helvetica; font-size: 12px; font-style: normal; font-variant-ligatures: normal; font-variant-caps: normal; font-weight: 400; letter-spacing: normal; orphans: 2; text-align: center; text-indent: 0px; text-transform: none; widows: 2; word-spacing: 0px; -webkit-text-stroke-width: 0px; white-space: normal; background-color: rgb(236, 236, 236); text-decoration-thickness: initial; text-decoration-style: initial; text-decoration-color: initial; display: inline !important; float: none;&quot;&gt;TRUE&lt;/span&gt;" style="text;whiteSpace=wrap;html=1;" vertex="1" parent="1">
          <mxGeometry x="490" y="490" width="70" height="40" as="geometry" />
        </mxCell>
        <mxCell id="3x9N-WNJ4bzo_OIqgOSU-45" value="&lt;span style=&quot;color: rgb(0, 0, 0); font-family: Helvetica; font-size: 12px; font-style: normal; font-variant-ligatures: normal; font-variant-caps: normal; font-weight: 400; letter-spacing: normal; orphans: 2; text-align: center; text-indent: 0px; text-transform: none; widows: 2; word-spacing: 0px; -webkit-text-stroke-width: 0px; white-space: normal; background-color: rgb(236, 236, 236); text-decoration-thickness: initial; text-decoration-style: initial; text-decoration-color: initial; display: inline !important; float: none;&quot;&gt;TRUE&lt;/span&gt;" style="text;whiteSpace=wrap;html=1;" vertex="1" parent="1">
          <mxGeometry x="640" y="490" width="70" height="40" as="geometry" />
        </mxCell>
        <mxCell id="3x9N-WNJ4bzo_OIqgOSU-46" value="TRUE" style="text;html=1;whiteSpace=wrap;strokeColor=none;fillColor=none;align=center;verticalAlign=middle;rounded=0;" vertex="1" parent="1">
          <mxGeometry x="780" y="490" width="60" height="30" as="geometry" />
        </mxCell>
        <mxCell id="3x9N-WNJ4bzo_OIqgOSU-49" value="FALSE" style="text;html=1;whiteSpace=wrap;strokeColor=none;fillColor=none;align=center;verticalAlign=middle;rounded=0;" vertex="1" parent="1">
          <mxGeometry x="790" y="410" width="60" height="30" as="geometry" />
        </mxCell>
      </root>
    </mxGraphModel>
  </diagram>
</mxfile>
